<svg height="1024" node-id="1" sillyvg="true" template-height="1024" template-width="1024" version="1.1" viewBox="0 0 1024 1024" width="1024" xmlns="http://www.w3.org/2000/svg" xmlns:xlink="http://www.w3.org/1999/xlink"><defs node-id="70"><linearGradient gradientUnits="objectBoundingBox" id="linearGradient-1" node-id="5" spreadMethod="pad" x1="0.9251822" x2="0.40792233" y1="0.988" y2="1"><stop offset="0" stop-color="#e0e5ef" stop-opacity="0"></stop><stop offset="1" stop-color="#e0e5ef"></stop></linearGradient><linearGradient gradientUnits="objectBoundingBox" id="linearGradient-2" node-id="8" spreadMethod="pad" x1="0.92039144" x2="0.4089598" y1="0.988" y2="1"><stop offset="0" stop-color="#e0e5ef" stop-opacity="0"></stop><stop offset="1" stop-color="#e0e5ef"></stop></linearGradient><linearGradient gradientUnits="objectBoundingBox" id="linearGradient-3" node-id="11" spreadMethod="pad" x1="0.7962005" x2="0.30298018" y1="0.4093955" y2="-0.085258625"><stop offset="0" stop-color="#a2abb9"></stop><stop offset="1" stop-color="#e7eaf0"></stop></linearGradient><linearGradient gradientUnits="objectBoundingBox" id="linearGradient-4" node-id="14" spreadMethod="pad" x1="1.1246362" x2="0.116000555" y1="0.5915278" y2="0.3927072"><stop offset="0" stop-color="#a2abb9"></stop><stop offset="1" stop-color="#e7eaf0"></stop><stop offset="1" stop-color="#e7eaf0"></stop></linearGradient><linearGradient gradientUnits="objectBoundingBox" id="linearGradient-5" node-id="18" spreadMethod="pad" x1="0.5" x2="0.5" y1="1" y2="0"><stop offset="0" stop-color="#e8ebf1" stop-opacity="0.23774004"></stop><stop offset="1" stop-color="#a2abb9"></stop></linearGradient></defs><g node-id="194"><g node-id="195"><path d="M 506.23 95.00 L 520.38 95.24 L 534.34 95.93 L 548.12 97.06 L 561.74 98.63 L 575.19 100.64 L 588.65 103.09 L 601.89 105.95 L 614.94 109.21 L 627.80 112.87 L 640.48 116.93 L 653.06 121.42 L 665.42 126.26 L 677.55 131.47 L 689.46 137.04 L 701.17 142.98 L 712.70 149.30 L 723.98 155.95 L 735.00 162.93 L 745.78 170.23 L 756.32 177.87 L 717.45 177.87 L 715.08 178.09 L 712.90 178.69 L 710.89 179.65 L 709.06 180.94 L 707.52 182.49 L 706.22 184.31 L 705.26 186.33 L 704.67 188.50 L 704.45 190.87 L 704.45 190.87 L 704.45 214.60 L 704.67 216.97 L 705.26 219.14 L 706.22 221.16 L 707.52 222.98 L 709.06 224.53 L 710.89 225.82 L 712.90 226.78 L 715.08 227.38 L 717.45 227.60 L 717.45 227.60 L 811.59 227.59 L 820.90 237.97 L 829.83 248.63 L 838.39 259.59 L 846.58 270.85 L 854.41 282.41 L 905.69 282.41 L 908.25 282.65 L 910.59 283.28 L 912.76 284.32 L 914.72 285.71 L 916.39 287.38 L 917.78 289.34 L 918.82 291.51 L 919.45 293.85 L 919.69 296.41 L 919.69 321.41 L 919.38 324.33 L 918.56 326.95 L 917.23 329.35 L 915.46 331.44 L 913.36 333.12 L 910.90 334.41 L 851.20 334.41 L 848.28 334.68 L 845.61 335.41 L 843.13 336.60 L 840.88 338.19 L 838.98 340.09 L 837.39 342.34 L 836.21 344.81 L 835.48 347.49 L 835.20 350.41 L 835.20 350.41 L 835.20 386.55 L 835.48 389.47 L 836.21 392.15 L 837.39 394.63 L 838.98 396.87 L 840.88 398.78 L 843.13 400.37 L 845.61 401.55 L 848.28 402.28 L 851.20 402.55 L 851.20 402.55 L 1001.25 402.55 L 1003.28 403.42 L 1005.13 404.53 L 1006.82 405.88 L 1008.31 407.45 L 1009.57 409.19 L 1010.60 411.12 L 1011.36 413.17 L 1011.83 415.35 L 1012.00 417.67 L 1012.00 446.24 L 1011.73 449.17 L 1011.00 451.84 L 1009.82 454.32 L 1008.23 456.57 L 1006.32 458.47 L 1004.08 460.06 L 1001.60 461.24 L 998.92 461.97 L 996.00 462.24 L 917.75 462.24 L 918.82 475.34 L 919.47 488.59 L 919.69 502.00 L 919.44 516.12 L 918.72 530.05 L 917.54 543.80 L 915.91 557.37 L 913.82 570.77 L 911.29 584.02 L 908.29 597.27 L 904.89 610.30 L 901.07 623.12 L 896.86 635.75 L 892.23 648.18 L 887.20 660.42 L 880.62 674.93 L 873.51 689.08 L 865.89 702.90 L 857.75 716.39 L 849.08 729.55 L 839.90 742.39 L 830.26 754.82 L 820.17 766.86 L 809.62 778.51 L 798.59 789.79 L 787.15 800.63 L 775.32 811.02 L 763.09 820.95 L 750.45 830.44 L 737.40 839.49 L 724.04 848.02 L 710.34 856.03 L 696.31 863.53 L 681.92 870.52 L 667.17 877.01 L 652.23 882.90 L 637.01 888.22 L 621.50 892.96 L 605.69 897.13 L 589.56 900.73 L 576.10 903.22 L 562.49 905.27 L 548.70 906.88 L 534.73 908.04 L 520.58 908.74 L 506.23 909.00 L 490.52 908.70 L 475.03 907.85 L 459.77 906.46 L 444.72 904.53 L 429.86 902.07 L 415.02 899.05 L 400.43 895.55 L 386.10 891.55 L 372.01 887.08 L 358.14 882.11 L 344.41 876.64 L 330.98 870.73 L 317.83 864.39 L 304.96 857.61 L 292.36 850.38 L 279.98 842.71 L 267.95 834.65 L 256.24 826.20 L 244.85 817.36 L 233.76 808.13 L 223.00 798.51 L 212.61 788.55 L 202.59 778.25 L 192.94 767.60 L 183.64 756.60 L 174.74 745.29 L 166.25 733.68 L 158.18 721.78 L 150.51 709.57 L 143.25 697.05 L 136.46 684.30 L 130.13 671.30 L 124.25 658.04 L 118.84 644.52 L 113.88 630.72 L 93.50 630.72 L 91.73 630.47 L 90.22 629.84 L 88.90 628.82 L 87.88 627.50 L 87.25 625.99 L 87.00 624.22 L 87.00 614.51 L 87.25 612.72 L 87.93 611.15 L 88.99 609.82 L 90.36 608.81 L 124.23 608.81 L 126.60 608.59 L 128.78 608.00 L 130.79 607.04 L 132.62 605.75 L 134.16 604.20 L 135.46 602.37 L 136.42 600.36 L 137.01 598.18 L 137.23 595.81 L 137.23 595.81 L 137.23 572.09 L 137.01 569.72 L 136.42 567.54 L 135.46 565.53 L 134.16 563.70 L 132.62 562.16 L 130.79 560.86 L 128.78 559.90 L 126.60 559.31 L 124.23 559.09 L 124.23 559.09 L 96.80 559.09 L 96.76 558.79 L 47.50 558.79 L 45.58 558.61 L 43.83 558.13 L 42.20 557.36 L 40.73 556.31 L 39.48 555.06 L 38.43 553.59 L 37.66 551.96 L 37.18 550.21 L 37.00 548.29 L 37.00 531.43 L 37.18 529.51 L 37.66 527.76 L 38.43 526.13 L 39.48 524.66 L 40.73 523.41 L 42.20 522.36 L 43.83 521.59 L 45.58 521.11 L 47.50 520.93 L 93.21 520.93 L 92.88 511.50 L 92.77 502.00 L 93.05 486.95 L 93.87 472.12 L 95.21 457.47 L 97.08 443.02 L 99.48 428.60 L 102.37 414.41 L 105.74 400.43 L 109.61 386.66 L 113.97 373.01 L 118.78 359.61 L 124.04 346.45 L 129.75 333.52 L 40.00 333.52 L 36.15 333.25 L 32.53 332.52 L 29.10 331.32 L 25.85 329.68 L 22.89 327.69 L 20.20 325.32 L 17.83 322.63 L 15.83 319.67 L 14.20 316.42 L 13.00 312.99 L 12.27 309.37 L 12.00 305.52 L 12.00 255.51 L 12.24 251.85 L 12.91 248.39 L 14.00 245.10 L 15.49 241.96 L 17.32 239.09 L 19.49 236.45 L 21.96 234.10 L 24.68 232.07 L 27.68 230.36 L 30.86 229.03 L 34.22 228.11 L 37.80 227.60 L 301.68 227.60 L 303.60 227.42 L 305.36 226.94 L 306.98 226.16 L 308.46 225.12 L 309.71 223.87 L 310.75 222.40 L 311.53 220.77 L 312.01 219.01 L 312.18 217.10 L 312.18 217.10 L 312.18 201.26 L 312.01 199.35 L 311.53 197.59 L 310.75 195.96 L 309.71 194.49 L 308.46 193.24 L 306.98 192.20 L 305.36 191.42 L 303.60 190.94 L 301.68 190.76 L 301.68 190.76 L 239.79 190.76 L 241.14 189.65 L 198.31 189.65 L 194.84 189.33 L 191.66 188.46 L 188.72 187.06 L 186.05 185.17 L 183.79 182.91 L 181.90 180.24 L 180.50 177.30 L 179.63 174.12 L 179.31 170.65 L 179.31 136.72 L 179.63 133.25 L 180.50 130.07 L 181.90 127.13 L 183.79 124.46 L 186.05 122.20 L 188.72 120.31 L 191.66 118.91 L 194.84 118.04 L 198.31 117.72 L 369.70 117.71 L 382.57 113.51 L 395.63 109.72 L 408.90 106.34 L 422.37 103.38 L 436.05 100.84 L 449.74 98.76 L 463.59 97.13 L 477.62 95.96 L 491.83 95.25 L 506.23 95.00 Z" fill="#f3f3fa" fill-opacity="0.6015942" fill-rule="evenodd" group-id="1,2" id="背景" node-id="26" stroke="none" target-height="814" target-width="1000" target-x="12" target-y="95"></path></g><g node-id="196"><path d="M 290.15 677.66 L 290.96 680.41 L 291.60 682.99 L 291.93 685.09 L 291.65 688.03 L 290.84 690.67 L 289.50 693.08 L 287.71 695.19 L 285.62 696.88 L 283.20 698.16 L 280.12 698.33 L 277.21 698.49 L 274.14 698.49 L 248.92 698.81 L 248.92 725.77 L 249.16 737.79 L 249.73 748.69 L 250.53 759.83 L 227.25 759.83 L 227.74 753.53 L 228.06 743.44 L 228.22 726.41 L 228.22 701.71 L 226.28 703.08 L 224.25 703.87 L 222.08 704.14 L 220.28 703.99 L 218.70 703.55 L 217.31 702.84 L 215.48 701.33 L 213.99 699.29 L 195.72 698.33 L 193.15 697.50 L 190.82 696.32 L 188.73 694.81 L 186.83 692.92 L 185.27 690.76 L 184.17 688.44 L 183.50 685.92 L 183.27 683.15 L 183.43 681.38 L 183.92 679.76 L 187.96 670.40 L 188.33 668.08 L 189.00 665.88 L 189.98 663.78 L 191.91 660.91 L 194.27 658.46 L 219.65 611.48 L 219.81 611.48 L 222.03 607.84 L 224.45 604.62 L 227.09 601.80 L 229.30 600.06 L 231.81 598.81 L 234.66 598.03 L 237.92 597.76 L 240.80 597.96 L 243.47 598.54 L 245.98 599.49 L 248.35 600.83 L 250.52 602.50 L 252.38 604.38 L 253.94 606.51 L 255.22 608.90 L 275.60 648.77 L 278.22 649.92 L 280.59 651.42 L 282.73 653.29 L 284.65 655.55 L 286.20 658.06 L 287.31 660.72 L 287.98 663.59 L 288.21 666.69 L 288.01 669.30 L 287.40 672.18 L 290.15 677.66 Z" fill="url(#linearGradient-1)" fill-rule="nonzero" group-id="1,3" id="路径" node-id="28" stroke="none" target-height="162.07" target-width="108.65999" target-x="183.27" target-y="597.76"></path><path d="M 861.05 677.66 L 861.86 680.41 L 862.51 682.99 L 862.83 685.09 L 862.55 688.03 L 861.74 690.67 L 860.40 693.08 L 858.62 695.19 L 856.53 696.88 L 854.10 698.16 L 851.03 698.33 L 848.12 698.49 L 845.04 698.49 L 819.82 698.81 L 819.82 725.77 L 820.06 737.79 L 820.63 748.69 L 821.44 759.83 L 798.15 759.83 L 798.64 753.53 L 798.96 743.44 L 799.12 726.41 L 799.12 701.71 L 797.18 703.08 L 795.15 703.87 L 792.98 704.14 L 791.18 703.99 L 789.61 703.55 L 788.21 702.84 L 786.39 701.33 L 784.89 699.29 L 766.62 698.33 L 764.05 697.50 L 761.73 696.32 L 759.63 694.81 L 757.73 692.92 L 756.17 690.76 L 755.07 688.44 L 754.40 685.92 L 754.17 683.15 L 754.33 681.38 L 754.82 679.76 L 758.86 670.40 L 759.23 668.08 L 759.91 665.88 L 760.88 663.78 L 762.81 660.91 L 765.17 658.46 L 790.55 611.48 L 790.72 611.48 L 792.93 607.84 L 795.35 604.62 L 797.99 601.80 L 800.21 600.06 L 802.71 598.81 L 805.56 598.03 L 808.82 597.76 L 811.70 597.96 L 814.38 598.54 L 816.88 599.49 L 819.25 600.83 L 821.42 602.50 L 823.28 604.38 L 824.84 606.51 L 826.13 608.90 L 846.50 648.77 L 849.13 649.92 L 851.49 651.42 L 853.63 653.29 L 855.55 655.55 L 857.11 658.06 L 858.21 660.72 L 858.88 663.59 L 859.11 666.69 L 858.92 669.30 L 858.30 672.18 L 861.05 677.66 Z" fill="url(#linearGradient-1)" fill-rule="nonzero" group-id="1,3" id="路径" node-id="29" stroke="none" target-height="162.07" target-width="108.660034" target-x="754.17" target-y="597.76"></path><path d="M 793.30 695.40 L 793.93 697.55 L 794.44 699.58 L 794.69 701.23 L 794.47 703.53 L 793.84 705.60 L 792.80 707.49 L 791.40 709.15 L 789.77 710.47 L 787.88 711.48 L 785.49 711.60 L 783.22 711.73 L 780.82 711.73 L 761.16 711.98 L 761.16 733.12 L 761.35 742.55 L 761.79 751.09 L 762.42 759.83 L 744.26 759.83 L 744.64 754.89 L 744.89 746.98 L 745.02 733.63 L 745.02 714.26 L 743.51 715.33 L 741.92 715.95 L 740.23 716.16 L 738.20 715.90 L 736.51 715.15 L 735.09 713.96 L 733.93 712.36 L 719.68 711.60 L 717.05 710.68 L 714.76 709.27 L 712.75 707.36 L 711.53 705.67 L 710.67 703.86 L 710.15 701.88 L 709.97 699.71 L 710.10 698.31 L 710.48 697.05 L 713.63 689.71 L 714.15 687.01 L 715.21 684.52 L 716.71 682.27 L 718.55 680.34 L 738.34 643.51 L 738.46 643.51 L 740.19 640.65 L 742.08 638.13 L 744.14 635.92 L 745.87 634.55 L 747.82 633.57 L 750.04 632.96 L 752.58 632.75 L 755.54 633.03 L 758.23 633.83 L 760.71 635.16 L 762.91 636.94 L 764.69 639.03 L 766.07 641.49 L 781.96 672.75 L 784.64 674.01 L 786.98 675.77 L 789.02 678.06 L 790.23 680.03 L 791.09 682.12 L 791.61 684.36 L 791.79 686.80 L 791.64 688.84 L 791.16 691.10 L 793.30 695.40 Z" fill="url(#linearGradient-2)" fill-rule="nonzero" group-id="1,3" id="路径" node-id="30" stroke="none" target-height="127.08002" target-width="84.72003" target-x="709.97" target-y="632.75"></path></g><path d="M 482.53 717.47 L 510.86 717.66 L 538.31 718.22 L 564.90 719.14 L 591.51 720.43 L 616.95 722.03 L 641.23 723.92 L 665.52 726.20 L 688.33 728.72 L 709.71 731.46 L 731.07 734.62 L 750.64 737.95 L 768.52 741.42 L 782.49 741.79 L 795.74 742.67 L 808.30 744.02 L 820.83 745.90 L 832.30 748.16 L 842.80 750.76 L 850.71 753.12 L 857.84 755.61 L 864.24 758.20 L 869.96 760.90 L 875.71 764.08 L 880.52 767.27 L 884.51 770.47 L 887.75 773.68 L 890.13 776.64 L 891.90 779.57 L 893.13 782.48 L 893.87 785.40 L 894.14 788.37 L 893.87 791.31 L 893.15 794.21 L 891.94 797.10 L 890.20 799.99 L 887.87 802.93 L 884.68 806.11 L 880.76 809.29 L 876.04 812.46 L 870.39 815.63 L 864.76 818.31 L 858.47 820.90 L 851.46 823.38 L 843.67 825.74 L 833.34 828.35 L 822.04 830.63 L 809.70 832.54 L 797.87 835.84 L 784.73 839.11 L 770.18 842.34 L 770.61 845.27 L 770.75 848.22 L 770.42 852.59 L 769.51 856.89 L 768.00 861.17 L 765.84 865.45 L 762.99 869.76 L 759.84 873.63 L 756.14 877.49 L 751.81 881.36 L 746.81 885.24 L 741.08 889.12 L 733.96 893.35 L 725.97 897.50 L 717.04 901.56 L 707.10 905.52 L 697.28 908.96 L 686.70 912.23 L 675.33 915.31 L 663.12 918.19 L 651.07 920.64 L 638.42 922.82 L 625.14 924.74 L 611.21 926.36 L 597.43 927.60 L 583.22 928.50 L 568.56 929.06 L 553.44 929.25 L 535.40 928.98 L 518.01 928.19 L 501.23 926.90 L 484.49 925.09 L 468.62 922.85 L 453.60 920.22 L 438.65 917.04 L 424.83 913.55 L 412.05 909.76 L 402.46 906.50 L 393.63 903.13 L 385.52 899.66 L 378.10 896.10 L 370.64 892.06 L 364.06 888.00 L 358.28 883.91 L 353.24 879.80 L 349.30 876.08 L 345.95 872.39 L 343.15 868.73 L 340.84 865.07 L 338.99 861.41 L 314.92 859.40 L 292.19 857.14 L 270.74 854.66 L 249.30 851.79 L 229.48 848.75 L 211.19 845.56 L 192.93 841.93 L 176.58 838.21 L 161.98 834.43 L 150.89 831.19 L 141.06 827.96 L 132.39 824.76 L 124.78 821.60 L 116.96 817.85 L 110.55 814.23 L 105.36 810.74 L 101.24 807.36 L 98.09 804.12 L 95.80 801.00 L 94.25 797.98 L 93.34 795.01 L 93.03 792.05 L 93.30 789.32 L 94.08 786.59 L 95.38 783.81 L 97.30 780.97 L 99.90 778.02 L 103.32 774.95 L 107.31 771.98 L 112.13 768.93 L 117.87 765.78 L 124.67 762.56 L 132.62 759.25 L 142.06 755.80 L 152.79 752.34 L 164.93 748.87 L 178.60 745.40 L 196.57 741.41 L 216.62 737.55 L 238.92 733.85 L 261.25 730.66 L 285.32 727.72 L 311.24 725.05 L 337.16 722.83 L 364.47 720.96 L 393.22 719.44 L 421.96 718.36 L 451.72 717.70 L 482.53 717.47 Z" fill="#e7eaf0" fill-rule="evenodd" group-id="1" id="形状结合" node-id="31" stroke="none" target-height="211.78003" target-width="801.11" target-x="93.03" target-y="717.47"></path><path d="M 309.37 250.14 L 318.36 246.87 L 343.85 302.92 L 325.87 309.46 Z" fill="#bfc3c9" fill-rule="nonzero" group-id="1,4,10" id="路径" node-id="34" stroke="none" target-height="62.589996" target-width="34.48001" target-x="309.37" target-y="246.87"></path><path d="M 299.11 297.43 L 356.61 276.50 L 360.23 275.39 L 363.80 274.68 L 367.35 274.33 L 370.89 274.34 L 375.58 274.89 L 380.07 276.01 L 384.41 277.71 L 388.50 279.94 L 392.25 282.66 L 395.68 285.90 L 397.97 288.61 L 399.98 291.55 L 401.73 294.75 L 403.21 298.22 L 427.33 364.49 L 428.43 368.11 L 429.15 371.68 L 429.50 375.23 L 429.48 378.76 L 428.93 383.46 L 427.81 387.95 L 426.11 392.29 L 423.88 396.38 L 421.16 400.12 L 417.92 403.56 L 415.22 405.85 L 412.28 407.86 L 409.08 409.61 L 405.60 411.09 L 348.09 432.02 L 344.48 433.12 L 340.91 433.84 L 337.36 434.19 L 333.82 434.17 L 329.13 433.62 L 324.63 432.50 L 320.30 430.80 L 316.21 428.57 L 312.46 425.85 L 309.02 422.61 L 306.74 419.91 L 304.72 416.97 L 302.98 413.77 L 301.50 410.29 L 277.38 344.02 L 276.28 340.41 L 275.56 336.83 L 275.21 333.29 L 275.22 329.75 L 275.77 325.06 L 276.90 320.56 L 278.59 316.22 L 280.82 312.14 L 283.55 308.39 L 286.79 304.95 L 289.49 302.67 L 292.43 300.65 L 295.63 298.91 L 299.11 297.43 Z" fill="url(#linearGradient-3)" fill-rule="nonzero" group-id="1,4,10" id="矩形" node-id="35" stroke="none" target-height="159.86002" target-width="154.29001" target-x="275.21" target-y="274.33"></path><path d="M 497.67 326.66 L 498.78 330.68 L 499.28 334.84 L 499.18 339.18 L 498.43 343.75 L 497.18 348.14 L 495.37 352.70 L 492.95 357.47 L 489.86 362.47 L 486.51 367.12 L 482.62 371.88 L 478.14 376.78 L 473.03 381.82 L 465.96 388.07 L 457.98 394.39 L 449.02 400.77 L 439.79 406.72 L 429.78 412.57 L 418.93 418.31 L 407.88 423.60 L 396.19 428.64 L 383.84 433.41 L 371.32 437.70 L 359.13 441.35 L 347.25 444.40 L 335.26 446.97 L 323.83 448.93 L 312.93 450.30 L 301.97 451.17 L 291.79 451.46 L 282.36 451.22 L 275.20 450.64 L 268.62 449.77 L 262.58 448.62 L 257.03 447.21 L 251.45 445.37 L 246.53 443.27 L 242.21 440.94 L 238.43 438.38 L 234.92 435.36 L 232.05 432.10 L 229.77 428.59 L 228.03 424.80 L 226.92 420.78 L 226.42 416.62 L 226.52 412.29 L 227.27 407.71 L 228.52 403.32 L 230.33 398.76 L 232.75 393.99 L 235.84 388.99 L 239.19 384.35 L 243.08 379.58 L 247.56 374.68 L 252.67 369.64 L 259.74 363.39 L 267.72 357.07 L 276.68 350.69 L 285.91 344.74 L 295.92 338.90 L 306.77 333.15 L 317.82 327.86 L 329.51 322.82 L 341.86 318.05 L 354.38 313.77 L 366.57 310.11 L 378.45 307.06 L 390.44 304.49 L 401.87 302.54 L 412.77 301.16 L 423.73 300.29 L 433.91 300.00 L 443.34 300.25 L 450.50 300.82 L 457.08 301.69 L 463.12 302.84 L 468.67 304.25 L 474.25 306.09 L 479.17 308.19 L 483.49 310.52 L 487.27 313.08 L 490.78 316.10 L 493.65 319.36 L 495.93 322.87 L 497.67 326.66 Z" fill="#a2abb9" fill-rule="nonzero" group-id="1,4,10" id="椭圆形" node-id="36" stroke="none" target-height="151.45999" target-width="272.86" target-x="226.42" target-y="300"></path><path d="M 497.67 334.03 L 498.78 338.05 L 499.28 342.20 L 499.18 346.54 L 498.43 351.11 L 497.18 355.50 L 495.37 360.07 L 492.95 364.84 L 489.86 369.84 L 486.51 374.48 L 482.62 379.25 L 478.14 384.15 L 473.03 389.19 L 465.96 395.44 L 457.98 401.75 L 449.02 408.14 L 439.79 414.09 L 429.78 419.93 L 418.93 425.67 L 407.88 430.97 L 396.19 436.01 L 383.84 440.78 L 371.32 445.06 L 359.13 448.71 L 347.25 451.76 L 335.26 454.34 L 323.83 456.29 L 312.93 457.67 L 301.97 458.54 L 291.79 458.83 L 282.36 458.58 L 275.20 458.01 L 268.62 457.14 L 262.58 455.99 L 257.03 454.58 L 251.45 452.74 L 246.53 450.64 L 242.21 448.30 L 238.43 445.75 L 234.92 442.73 L 232.05 439.47 L 229.77 435.96 L 228.03 432.17 L 226.92 428.15 L 226.42 423.99 L 226.52 419.65 L 227.27 415.08 L 228.52 410.69 L 230.33 406.12 L 232.75 401.35 L 235.84 396.35 L 239.19 391.71 L 243.08 386.95 L 247.56 382.05 L 252.67 377.01 L 259.74 370.76 L 267.72 364.44 L 276.68 358.06 L 285.91 352.11 L 295.92 346.26 L 306.77 340.52 L 317.82 335.23 L 329.51 330.19 L 341.86 325.42 L 354.38 321.13 L 366.57 317.48 L 378.45 314.43 L 390.44 311.86 L 401.87 309.90 L 412.77 308.52 L 423.73 307.65 L 433.91 307.37 L 443.34 307.61 L 450.50 308.18 L 457.08 309.06 L 463.12 310.21 L 468.67 311.61 L 474.25 313.46 L 479.17 315.56 L 483.49 317.89 L 487.27 320.45 L 490.78 323.47 L 493.65 326.73 L 495.93 330.24 L 497.67 334.03 Z" fill="url(#linearGradient-4)" fill-rule="nonzero" group-id="1,4,10" id="椭圆形备份" node-id="37" stroke="none" target-height="151.45999" target-width="272.86" target-x="226.42" target-y="307.37"></path><path d="M 445.49 358.46 L 446.06 360.85 L 446.15 363.38 L 445.71 366.10 L 444.68 369.08 L 442.76 372.78 L 439.94 376.79 L 436.08 381.18 L 431.87 385.20 L 426.82 389.41 L 420.84 393.79 L 414.66 397.84 L 407.78 401.90 L 400.13 405.97 L 392.34 409.71 L 384.00 413.30 L 375.10 416.75 L 366.06 419.83 L 357.37 422.44 L 348.99 424.58 L 340.52 426.38 L 332.64 427.70 L 325.30 428.57 L 317.90 429.05 L 311.33 429.08 L 305.52 428.70 L 299.74 427.82 L 295.00 426.55 L 291.15 424.96 L 288.45 423.34 L 286.37 421.53 L 284.80 419.54 L 283.71 417.35 L 283.14 414.96 L 283.05 412.43 L 283.49 409.71 L 284.51 406.73 L 286.44 403.03 L 289.26 399.02 L 293.12 394.63 L 297.33 390.60 L 302.38 386.40 L 308.35 382.02 L 314.54 377.97 L 321.42 373.91 L 329.07 369.84 L 336.86 366.10 L 345.20 362.51 L 354.10 359.06 L 363.14 355.98 L 371.83 353.37 L 380.21 351.23 L 388.68 349.43 L 396.56 348.11 L 403.90 347.24 L 411.30 346.76 L 417.87 346.73 L 423.68 347.11 L 429.46 347.99 L 434.20 349.25 L 438.05 350.85 L 440.75 352.47 L 442.83 354.28 L 444.39 356.26 L 445.49 358.46 Z" fill="#a2abb9" fill-rule="nonzero" group-id="1,4,10" id="椭圆形" node-id="38" stroke="none" target-height="82.349976" target-width="163.1" target-x="283.05" target-y="346.73"></path><path d="M 281.96 412.54 L 443.74 353.66 L 775.46 758.33 L 299.86 850.25 Z" fill="url(#linearGradient-5)" fill-opacity="0.5" fill-rule="nonzero" group-id="1,4,10,22" id="路径" node-id="39" stroke="none" target-height="496.59" target-width="493.50003" target-x="281.96" target-y="353.66"></path><path d="M 320.33 246.15 L 320.78 248.09 L 320.72 249.97 L 320.22 251.74 L 319.30 253.29 L 318.02 254.55 L 316.38 255.43 L 314.56 255.81 L 312.77 255.67 L 311.07 255.07 L 309.55 254.03 L 308.30 252.63 L 307.39 250.86 L 306.95 248.92 L 307.00 247.05 L 307.51 245.27 L 308.42 243.72 L 309.70 242.46 L 311.34 241.58 L 313.16 241.20 L 314.95 241.34 L 316.65 241.94 L 318.18 242.98 L 319.42 244.38 L 320.33 246.15 Z" fill="#a2abb9" fill-rule="nonzero" group-id="1,4,10" id="椭圆形" node-id="40" stroke="none" target-height="14.610001" target-width="13.829987" target-x="306.95" target-y="241.2"></path><path d="M 581.06 866.82 L 580.77 868.37 L 579.94 869.93 L 578.44 871.55 L 576.07 873.27 L 572.69 875.05 L 568.23 876.81 L 562.45 878.54 L 556.62 879.89 L 549.92 881.08 L 542.26 882.09 L 534.59 882.79 L 526.36 883.23 L 517.52 883.40 L 508.69 883.23 L 500.46 882.79 L 492.79 882.09 L 485.13 881.08 L 478.43 879.89 L 472.60 878.54 L 466.82 876.81 L 462.36 875.05 L 458.98 873.27 L 456.61 871.55 L 455.11 869.93 L 454.28 868.37 L 453.99 866.82 L 454.28 865.27 L 455.11 863.71 L 456.61 862.09 L 458.98 860.37 L 462.36 858.60 L 466.82 856.83 L 472.60 855.10 L 478.43 853.75 L 485.13 852.56 L 492.79 851.55 L 500.45 850.85 L 508.69 850.41 L 517.52 850.25 L 526.36 850.41 L 534.59 850.85 L 542.26 851.55 L 549.92 852.56 L 556.62 853.75 L 562.45 855.10 L 568.23 856.83 L 572.69 858.60 L 576.07 860.37 L 578.44 862.09 L 579.94 863.71 L 580.77 865.27 L 581.06 866.82 Z" fill="#d1d6e2" fill-rule="nonzero" group-id="1,4" id="椭圆形" node-id="41" stroke="none" target-height="33.150024" target-width="127.07001" target-x="453.99" target-y="850.25"></path><path d="M 533.78 305.05 L 533.78 304.94 L 532.27 301.36 L 530.46 298.08 L 528.36 295.05 L 525.96 292.28 L 522.36 288.95 L 518.40 286.08 L 514.08 283.65 L 509.51 281.70 L 504.80 280.22 L 499.91 279.21 L 494.95 278.68 L 490.07 278.65 L 485.24 279.10 L 488.92 277.06 L 492.92 275.30 L 497.25 273.85 L 501.70 272.78 L 506.17 272.14 L 510.70 271.90 L 515.21 272.14 L 519.48 272.89 L 523.55 274.14 L 526.45 275.45 L 529.10 277.10 L 531.54 279.09 L 533.77 281.45 L 533.77 281.56 L 536.00 279.23 L 538.44 277.25 L 541.10 275.62 L 544.01 274.31 L 548.09 273.06 L 552.37 272.31 L 556.88 272.07 L 561.42 272.29 L 565.90 272.93 L 570.34 273.98 L 574.67 275.43 L 578.65 277.18 L 582.30 279.22 L 577.48 278.79 L 572.59 278.84 L 567.63 279.39 L 562.75 280.41 L 558.03 281.90 L 553.47 283.86 L 549.14 286.28 L 545.19 289.15 L 541.59 292.46 L 539.18 295.23 L 537.08 298.24 L 535.28 301.50 L 533.77 305.05 L 533.78 305.05 Z" fill="#a2abb9" fill-opacity="0.65" fill-rule="nonzero" group-id="1,4,11" id="路径" node-id="42" stroke="none" target-height="33.149994" target-width="97.06" target-x="485.24" target-y="271.9"></path><path d="M 565.25 245.90 L 565.25 245.82 L 564.03 243.05 L 562.50 240.58 L 560.65 238.37 L 558.53 236.41 L 556.20 234.72 L 553.66 233.29 L 550.97 232.13 L 548.19 231.26 L 545.31 230.67 L 542.39 230.36 L 539.52 230.34 L 536.68 230.61 L 540.00 228.87 L 543.75 227.52 L 547.68 226.67 L 551.67 226.37 L 554.32 226.51 L 556.84 226.96 L 559.23 227.69 L 561.47 228.76 L 563.47 230.19 L 565.25 231.99 L 565.25 232.06 L 567.03 230.28 L 569.03 228.86 L 571.28 227.79 L 573.68 227.06 L 576.20 226.61 L 578.86 226.47 L 582.85 226.76 L 586.78 227.60 L 590.52 228.94 L 593.83 230.68 L 590.99 230.43 L 588.11 230.46 L 585.19 230.78 L 582.32 231.38 L 579.54 232.26 L 576.85 233.41 L 574.30 234.84 L 571.98 236.52 L 569.85 238.48 L 568.00 240.68 L 566.47 243.14 L 565.25 245.89 L 565.25 245.90 Z" fill="#a2abb9" fill-opacity="0.65" fill-rule="nonzero" group-id="1,4,12" id="路径" node-id="43" stroke="none" target-height="19.529999" target-width="57.150024" target-x="536.68" target-y="226.37"></path><path d="M 643.02 236.32 L 643.02 236.27 L 641.83 233.75 L 640.29 231.59 L 638.37 229.75 L 636.16 228.23 L 633.78 227.04 L 631.19 226.18 L 628.51 225.68 L 625.86 225.53 L 623.22 225.73 L 625.26 224.64 L 627.48 223.78 L 629.93 223.16 L 632.42 222.83 L 634.83 222.84 L 637.18 223.19 L 639.41 223.93 L 641.34 225.09 L 643.02 226.69 L 643.02 226.74 L 644.71 225.15 L 646.64 224.00 L 648.88 223.26 L 651.23 222.91 L 653.65 222.89 L 656.14 223.22 L 658.58 223.84 L 660.81 224.69 L 662.83 225.78 L 660.19 225.59 L 657.54 225.75 L 654.86 226.26 L 652.27 227.12 L 649.89 228.31 L 647.68 229.83 L 645.76 231.67 L 644.21 233.82 L 643.02 236.32 L 643.02 236.32 Z" fill="#909aa9" fill-opacity="0.35" fill-rule="nonzero" group-id="1,4,13" id="路径" node-id="44" stroke="none" target-height="13.4900055" target-width="39.610046" target-x="623.22" target-y="222.83"></path><path d="M 602.37 195.91 L 602.37 195.86 L 601.18 193.34 L 599.64 191.18 L 597.72 189.34 L 595.51 187.81 L 593.13 186.63 L 590.54 185.77 L 587.86 185.27 L 585.21 185.12 L 582.57 185.32 L 584.61 184.23 L 586.83 183.37 L 589.28 182.75 L 591.77 182.42 L 594.18 182.43 L 596.53 182.78 L 598.76 183.52 L 600.69 184.68 L 602.37 186.28 L 602.37 186.33 L 604.06 184.74 L 605.99 183.59 L 608.23 182.85 L 610.58 182.50 L 613.00 182.48 L 615.49 182.81 L 617.93 183.43 L 620.16 184.28 L 622.18 185.37 L 619.54 185.18 L 616.89 185.34 L 614.21 185.85 L 611.62 186.71 L 609.24 187.90 L 607.03 189.42 L 605.11 191.26 L 603.56 193.41 L 602.37 195.91 L 602.37 195.91 Z" fill="#909aa9" fill-opacity="0.35" fill-rule="nonzero" group-id="1,4,14" id="路径" node-id="45" stroke="none" target-height="13.4900055" target-width="39.609985" target-x="582.57" target-y="182.42"></path><path d="M 711.07 240.87 L 711.07 240.84 L 710.25 239.09 L 709.18 237.60 L 707.85 236.32 L 705.51 234.82 L 702.87 233.84 L 700.09 233.41 L 697.34 233.53 L 699.51 232.46 L 701.99 231.75 L 704.56 231.50 L 707.02 231.77 L 708.57 232.28 L 709.91 233.08 L 711.07 234.19 L 711.07 234.23 L 712.24 233.13 L 713.59 232.33 L 715.13 231.82 L 717.60 231.54 L 720.17 231.79 L 722.65 232.49 L 724.80 233.56 L 722.06 233.46 L 719.28 233.90 L 716.64 234.88 L 714.30 236.37 L 712.97 237.65 L 711.90 239.14 L 711.07 240.87 Z" fill="#909aa9" fill-opacity="0.35" fill-rule="nonzero" group-id="1,4,15" id="路径" node-id="46" stroke="none" target-height="9.369995" target-width="27.45996" target-x="697.34" target-y="231.5"></path><path d="M 596.38 607.64 L 445.06 636.57 L 468.65 709.17 L 617.13 679.42 Z" fill="#a2abb9" fill-rule="nonzero" group-id="1,5" id="路径" node-id="48" stroke="none" target-height="101.52997" target-width="172.07" target-x="445.06" target-y="607.64"></path><path d="M 337.08 698.17 L 444.97 636.94 L 471.49 718.50 L 363.54 779.58 Z" fill="#c0c7d2" fill-rule="nonzero" group-id="1,5" id="路径" node-id="49" stroke="none" target-height="142.64001" target-width="134.41" target-x="337.08" target-y="636.94"></path><path d="M 481.94 684.27 L 595.87 611.76 L 645.19 763.56 L 531.26 836.07 Z" fill="#a2abb9" fill-rule="nonzero" group-id="1,5" id="路径" node-id="50" stroke="none" target-height="224.31" target-width="163.25" target-x="481.94" target-y="611.76"></path><path d="M 339.75 699.82 L 483.45 683.19 L 532.26 836.07 L 388.34 849.36 Z" fill="#c0c7d2" fill-rule="nonzero" group-id="1,5" id="路径" node-id="51" stroke="none" target-height="166.16998" target-width="192.51001" target-x="339.75" target-y="683.19"></path><path d="M 483.72 683.47 L 336.94 698.60 L 325.39 762.33 L 475.76 750.31 Z" fill="#d1d6e2" fill-rule="nonzero" group-id="1,5" id="路径" node-id="52" stroke="none" target-height="78.86005" target-width="158.32999" target-x="325.39" target-y="683.47"></path><path d="M 483.72 683.47 L 596.63 608.75 L 645.62 652.02 L 539.53 729.93 Z" fill="#c0c7d2" fill-rule="nonzero" group-id="1,5" id="路径" node-id="53" stroke="none" target-height="121.17999" target-width="161.9" target-x="483.72" target-y="608.75"></path><path d="M 373.21 493.24 L 377.65 476.65 L 383.17 478.13 L 385.46 469.57 L 379.95 468.09 L 390.97 426.97 L 381.89 424.53 L 370.87 465.66 L 358.19 462.26 L 356.83 461.69 L 355.91 460.86 L 355.40 459.91 L 355.20 459.00 L 355.30 458.09 L 356.07 456.11 L 356.07 456.11 L 371.16 421.66 L 362.17 419.25 L 345.64 456.62 L 345.05 458.32 L 344.68 460.24 L 344.66 461.88 L 344.93 463.27 L 345.96 465.63 L 347.31 467.40 L 349.01 468.69 L 351.12 469.54 L 351.12 469.54 L 368.58 474.22 L 364.13 490.81 L 373.21 493.24 Z" fill="#131313" fill-rule="nonzero" group-id="1,6,16" node-id="163" stroke="none" target-height="73.98999" target-width="46.309998" target-x="344.66" target-y="419.25"></path><path d="M 373.21 493.24 L 377.65 476.65 L 383.17 478.13 L 385.46 469.57 L 379.95 468.09 L 390.97 426.97 L 381.89 424.53 L 370.87 465.66 L 358.19 462.26 L 356.83 461.69 L 355.91 460.86 L 355.40 459.91 L 355.20 459.00 L 355.30 458.09 L 356.07 456.11 L 356.07 456.11 L 371.16 421.66 L 362.17 419.25 L 345.64 456.62 L 345.05 458.32 L 344.68 460.24 L 344.66 461.88 L 344.93 463.27 L 345.96 465.63 L 347.31 467.40 L 349.01 468.69 L 351.12 469.54 L 351.12 469.54 L 368.58 474.22 L 364.13 490.81 L 373.21 493.24 Z" fill="#909aa9" fill-rule="nonzero" group-id="1,6,17" node-id="168" stroke="none" target-height="73.98999" target-width="46.309998" target-x="344.66" target-y="419.25"></path><path d="M 433.90 657.68 L 427.67 634.45 L 435.40 632.38 L 432.19 620.41 L 424.47 622.48 L 409.04 564.90 L 396.33 568.30 L 411.76 625.88 L 394.00 630.64 L 391.95 630.89 L 390.26 630.53 L 388.97 629.74 L 388.10 628.77 L 387.59 627.60 L 387.12 624.66 L 387.12 624.66 L 381.31 572.33 L 368.73 575.70 L 374.84 632.58 L 375.31 635.06 L 376.22 637.64 L 377.33 639.64 L 378.64 641.14 L 380.95 642.93 L 383.26 644.10 L 385.58 644.72 L 387.99 644.83 L 390.53 644.41 L 390.53 644.41 L 414.97 637.86 L 421.19 661.08 L 433.90 657.68 Z" fill="#131313" fill-rule="nonzero" group-id="1,7,18" node-id="175" stroke="none" target-height="96.17999" target-width="66.66998" target-x="368.73" target-y="564.9"></path><path d="M 433.90 657.68 L 427.67 634.45 L 435.40 632.38 L 432.19 620.41 L 424.47 622.48 L 409.04 564.90 L 396.33 568.30 L 411.76 625.88 L 394.00 630.64 L 391.95 630.89 L 390.26 630.53 L 388.97 629.74 L 388.10 628.77 L 387.59 627.60 L 387.12 624.66 L 387.12 624.66 L 381.31 572.33 L 368.73 575.70 L 374.84 632.58 L 375.31 635.06 L 376.22 637.64 L 377.33 639.64 L 378.64 641.14 L 380.95 642.93 L 383.26 644.10 L 385.58 644.72 L 387.99 644.83 L 390.53 644.41 L 390.53 644.41 L 414.97 637.86 L 421.19 661.08 L 433.90 657.68 Z" fill="#909aa9" fill-rule="nonzero" group-id="1,7,19" node-id="180" stroke="none" target-height="96.17999" target-width="66.66998" target-x="368.73" target-y="564.9"></path><path d="M 446.03 539.15 L 448.28 539.44 L 451.21 539.20 L 453.67 538.58 L 455.70 537.66 L 457.71 536.17 L 459.45 534.14 L 460.94 531.46 L 462.15 527.99 L 462.15 527.99 L 475.82 476.97 L 476.35 474.10 L 476.38 471.33 L 475.93 468.61 L 474.98 465.91 L 473.92 464.07 L 472.49 462.44 L 470.63 461.02 L 468.30 459.81 L 465.38 458.81 L 465.38 458.81 L 444.74 453.28 L 442.10 452.85 L 439.55 452.96 L 437.03 453.61 L 434.49 454.84 L 432.24 456.56 L 430.36 458.71 L 428.84 461.35 L 427.69 464.58 L 427.69 464.58 L 414.08 515.39 L 413.48 518.66 L 413.50 521.56 L 414.06 524.18 L 415.16 526.57 L 416.89 528.91 L 419.01 530.81 L 421.54 532.30 L 424.56 533.39 L 424.56 533.39 L 446.03 539.15 Z M 444.61 527.76 L 429.19 523.63 L 427.28 522.86 L 426.04 521.83 L 425.32 520.53 L 425.08 518.87 L 425.40 516.70 L 425.40 516.70 L 438.70 467.08 L 439.15 465.99 L 439.84 465.11 L 440.81 464.41 L 441.83 464.05 L 443.03 463.98 L 444.49 464.22 L 444.49 464.22 L 461.48 468.77 L 463.11 469.44 L 464.16 470.34 L 464.78 471.50 L 464.98 473.00 L 464.67 474.99 L 464.67 474.99 L 451.62 523.72 L 450.94 525.69 L 450.20 526.93 L 449.44 527.66 L 448.37 528.08 L 446.82 528.16 L 444.61 527.76 L 444.61 527.76 Z" fill="#131313" fill-rule="nonzero" group-id="1,8,20" node-id="187" stroke="none" target-height="86.59" target-width="62.899994" target-x="413.48" target-y="452.85"></path><path d="M 446.03 539.15 L 448.28 539.44 L 451.21 539.20 L 453.67 538.58 L 455.70 537.66 L 457.71 536.17 L 459.45 534.14 L 460.94 531.46 L 462.15 527.99 L 462.15 527.99 L 475.82 476.97 L 476.35 474.10 L 476.38 471.33 L 475.93 468.61 L 474.98 465.91 L 473.92 464.07 L 472.49 462.44 L 470.63 461.02 L 468.30 459.81 L 465.38 458.81 L 465.38 458.81 L 444.74 453.28 L 442.10 452.85 L 439.55 452.96 L 437.03 453.61 L 434.49 454.84 L 432.24 456.56 L 430.36 458.71 L 428.84 461.35 L 427.69 464.58 L 427.69 464.58 L 414.08 515.39 L 413.48 518.66 L 413.50 521.56 L 414.06 524.18 L 415.16 526.57 L 416.89 528.91 L 419.01 530.81 L 421.54 532.30 L 424.56 533.39 L 424.56 533.39 L 446.03 539.15 Z M 444.61 527.76 L 429.19 523.63 L 427.28 522.86 L 426.04 521.83 L 425.32 520.53 L 425.08 518.87 L 425.40 516.70 L 425.40 516.70 L 438.70 467.08 L 439.15 465.99 L 439.84 465.11 L 440.81 464.41 L 441.83 464.05 L 443.03 463.98 L 444.49 464.22 L 444.49 464.22 L 461.48 468.77 L 463.11 469.44 L 464.16 470.34 L 464.78 471.50 L 464.98 473.00 L 464.67 474.99 L 464.67 474.99 L 451.62 523.72 L 450.94 525.69 L 450.20 526.93 L 449.44 527.66 L 448.37 528.08 L 446.82 528.16 L 444.61 527.76 L 444.61 527.76 Z" fill="#909aa9" fill-rule="nonzero" group-id="1,8,21" node-id="192" stroke="none" target-height="86.59" target-width="62.899994" target-x="413.48" target-y="452.85"></path><path d="M 611.93 353.12 L 608.32 353.37 L 605.16 354.10 L 602.37 355.29 L 599.91 356.92 L 597.73 359.03 L 595.99 361.35 L 594.63 363.93 L 593.63 366.81 L 593.02 370.04 L 592.81 373.67 L 593.02 377.28 L 593.63 380.49 L 594.63 383.36 L 595.99 385.94 L 597.73 388.26 L 599.90 390.33 L 602.36 391.94 L 605.15 393.11 L 608.31 393.85 L 611.93 394.12 L 615.50 393.86 L 618.65 393.14 L 621.44 391.98 L 623.92 390.38 L 626.13 388.31 L 627.87 386.00 L 629.24 383.42 L 630.25 380.54 L 630.88 377.31 L 631.10 373.67 L 630.88 369.99 L 630.25 366.73 L 629.24 363.84 L 627.87 361.27 L 626.13 358.98 L 623.91 356.89 L 621.43 355.27 L 618.65 354.10 L 615.50 353.37 L 611.93 353.12 Z M 611.93 358.43 L 615.03 358.69 L 617.62 359.48 L 619.81 360.75 L 621.65 362.51 L 623.05 364.60 L 624.10 367.11 L 624.77 370.10 L 625.02 373.67 L 624.77 377.22 L 624.10 380.19 L 623.05 382.66 L 621.65 384.72 L 619.81 386.47 L 617.62 387.74 L 615.03 388.53 L 611.93 388.81 L 608.84 388.52 L 606.24 387.71 L 604.03 386.41 L 602.15 384.61 L 600.75 382.51 L 599.72 380.04 L 599.07 377.12 L 598.83 373.67 L 599.07 370.19 L 599.72 367.25 L 600.76 364.77 L 602.15 362.68 L 604.04 360.83 L 606.25 359.51 L 608.84 358.70 L 611.93 358.43 Z" fill="#909aa9" fill-rule="nonzero" group-id="1,9" id="形状" node-id="64" stroke="none" target-height="41" target-width="38.289978" target-x="592.81" target-y="353.12"></path><path d="M 649.77 364.01 L 646.60 364.29 L 643.86 365.11 L 641.48 366.45 L 639.38 368.31 L 637.71 370.53 L 636.51 373.03 L 635.77 375.86 L 635.52 379.09 L 635.77 382.29 L 636.51 385.10 L 637.69 387.56 L 639.33 389.75 L 641.46 391.64 L 643.86 392.98 L 646.61 393.82 L 649.77 394.12 L 652.93 393.82 L 655.68 392.98 L 658.09 391.64 L 660.21 389.75 L 661.86 387.56 L 663.04 385.10 L 663.77 382.29 L 664.03 379.09 L 663.76 375.86 L 663.01 373.03 L 661.81 370.53 L 660.16 368.31 L 658.07 366.45 L 655.68 365.11 L 652.94 364.29 L 649.77 364.01 Z M 649.77 368.81 L 651.72 369.01 L 653.39 369.61 L 654.85 370.60 L 656.13 372.02 L 657.20 373.94 L 657.87 376.27 L 658.11 379.09 L 657.88 381.84 L 657.20 384.15 L 656.13 386.10 L 654.85 387.51 L 653.40 388.49 L 651.72 389.09 L 649.77 389.31 L 647.81 389.09 L 646.15 388.48 L 644.71 387.50 L 643.47 386.10 L 642.42 384.20 L 641.76 381.89 L 641.54 379.09 L 641.76 376.26 L 642.42 373.94 L 643.47 372.02 L 644.72 370.60 L 646.15 369.61 L 647.81 369.02 L 649.77 368.81 Z" fill="#909aa9" fill-rule="nonzero" group-id="1,9" id="形状" node-id="65" stroke="none" target-height="30.109985" target-width="28.51001" target-x="635.52" target-y="364.01"></path><path d="M 683.92 364.01 L 681.08 364.28 L 678.72 365.08 L 676.74 366.38 L 675.08 368.20 L 675.08 364.78 L 669.61 364.78 L 669.61 404.28 L 675.46 404.28 L 675.46 389.14 L 677.39 391.40 L 679.45 392.92 L 681.70 393.81 L 684.19 394.12 L 687.19 393.82 L 689.74 392.97 L 691.95 391.59 L 693.86 389.64 L 695.25 387.50 L 696.26 385.08 L 696.89 382.33 L 697.12 379.20 L 696.89 375.90 L 696.24 373.06 L 695.21 370.61 L 693.80 368.48 L 691.84 366.53 L 689.58 365.15 L 686.97 364.30 L 683.92 364.01 Z M 683.03 368.76 L 685.12 368.96 L 686.83 369.55 L 688.23 370.50 L 689.38 371.85 L 690.27 373.69 L 690.86 376.09 L 691.10 379.20 L 690.85 382.30 L 690.20 384.70 L 689.22 386.55 L 688.09 387.75 L 686.69 388.62 L 684.98 389.17 L 682.87 389.36 L 680.78 389.06 L 679.04 388.21 L 677.56 386.77 L 676.33 384.77 L 675.56 382.34 L 675.30 379.36 L 675.30 378.87 L 675.52 375.98 L 676.15 373.66 L 677.12 371.80 L 678.28 370.45 L 679.63 369.52 L 681.19 368.95 L 683.03 368.76 Z" fill="#909aa9" fill-rule="nonzero" group-id="1,9" id="形状" node-id="66" stroke="none" target-height="40.26999" target-width="27.51001" target-x="669.61" target-y="364.01"></path><path d="M 713.31 364.01 L 709.93 364.27 L 707.17 365.02 L 704.91 366.22 L 703.49 367.43 L 702.50 368.82 L 701.91 370.42 L 701.71 372.29 L 701.91 374.03 L 702.52 375.53 L 703.53 376.86 L 705.02 378.04 L 706.44 378.79 L 708.70 379.62 L 712.09 380.52 L 716.10 381.55 L 717.84 382.18 L 719.31 383.13 L 720.11 384.20 L 720.38 385.44 L 720.14 386.72 L 719.47 387.72 L 718.30 388.51 L 716.41 389.08 L 713.53 389.31 L 711.35 389.15 L 709.82 388.76 L 708.78 388.20 L 707.93 387.31 L 707.24 385.99 L 706.73 384.12 L 700.99 384.12 L 701.50 386.82 L 702.41 388.99 L 703.70 390.74 L 705.38 392.13 L 707.53 393.17 L 710.26 393.86 L 713.69 394.12 L 717.56 393.86 L 720.50 393.19 L 722.69 392.19 L 724.30 390.91 L 725.44 389.34 L 726.15 387.42 L 726.40 385.06 L 726.18 383.24 L 725.55 381.68 L 724.51 380.31 L 722.98 379.09 L 721.35 378.21 L 719.00 377.30 L 715.74 376.38 L 711.82 375.32 L 709.99 374.67 L 708.59 373.82 L 707.88 372.98 L 707.67 372.13 L 707.84 371.09 L 708.34 370.27 L 709.22 369.59 L 710.74 369.02 L 713.20 368.81 L 715.19 368.94 L 716.66 369.29 L 717.73 369.81 L 718.53 370.51 L 719.21 371.54 L 719.77 373.01 L 725.46 373.01 L 724.96 370.60 L 724.08 368.64 L 722.86 367.07 L 721.25 365.81 L 719.20 364.85 L 716.60 364.23 L 713.31 364.01 Z" fill="#909aa9" fill-rule="nonzero" group-id="1,9" id="路径" node-id="67" stroke="none" target-height="30.109985" target-width="25.410034" target-x="700.99" target-y="364.01"></path><path d="M 737.23 385.44 L 735.69 385.71 L 734.41 386.55 L 733.73 387.34 L 733.33 388.26 L 733.20 389.36 L 733.33 390.42 L 733.73 391.34 L 734.41 392.18 L 735.70 393.05 L 737.23 393.34 L 738.80 393.06 L 740.16 392.24 L 741.02 390.96 L 741.32 389.36 L 741.18 388.25 L 740.80 387.33 L 740.16 386.55 L 738.85 385.71 L 737.23 385.44 Z M 755.68 385.44 L 754.15 385.71 L 752.87 386.55 L 752.19 387.34 L 751.78 388.26 L 751.65 389.36 L 751.78 390.42 L 752.18 391.34 L 752.87 392.18 L 754.15 393.05 L 755.68 393.34 L 757.25 393.06 L 758.61 392.24 L 759.48 390.96 L 759.77 389.36 L 759.64 388.25 L 759.25 387.33 L 758.61 386.55 L 757.31 385.71 L 755.68 385.44 Z M 774.08 385.44 L 772.52 385.71 L 771.21 386.55 L 770.57 387.33 L 770.18 388.25 L 770.05 389.36 L 770.34 390.90 L 771.21 392.18 L 772.52 393.05 L 774.08 393.34 L 775.65 393.06 L 776.95 392.24 L 777.85 390.95 L 778.17 389.36 L 778.03 388.25 L 777.65 387.33 L 777.01 386.55 L 775.70 385.71 L 774.08 385.44 Z" fill="#909aa9" fill-rule="nonzero" group-id="1,9" id="形状" node-id="68" stroke="none" target-height="7.899994" target-width="44.96997" target-x="733.2" target-y="385.44"></path></g></svg>