<?xml version="1.0" standalone="no"?><!DOCTYPE svg PUBLIC "-//W3C//DTD SVG 1.1//EN" "http://www.w3.org/Graphics/SVG/1.1/DTD/svg11.dtd"><svg t="1693163863276" class="icon" viewBox="0 0 1024 1024" version="1.1" xmlns="http://www.w3.org/2000/svg" p-id="9511" xmlns:xlink="http://www.w3.org/1999/xlink" width="200" height="200"><path d="M883.612903 8.258065l-726.709677 0c-36.484129 0-66.064516 29.580387-66.064516 66.064516l0 115.612903-33.032258 0c-18.233806 0-33.032258 14.798452-33.032258 33.032258s14.798452 33.032258 33.032258 33.032258l33.032258 0 0 132.129032-33.032258 0c-18.233806 0-33.032258 14.798452-33.032258 33.032258s14.798452 33.032258 33.032258 33.032258l33.032258 0 0 115.612903-33.032258 0c-18.233806 0-33.032258 14.798452-33.032258 33.032258s14.798452 33.032258 33.032258 33.032258l33.032258 0 0 132.129032-33.032258 0c-18.233806 0-33.032258 14.798452-33.032258 33.032258s14.798452 33.032258 33.032258 33.032258l33.032258 0 0 115.612903c0 36.484129 29.580387 66.064516 66.064516 66.064516l726.709677 0c36.484129 0 66.064516-29.580387 66.064516-66.064516l0-875.354839C949.677419 37.838452 920.097032 8.258065 883.612903 8.258065zM883.612903 949.677419l-726.709677 0 0-115.612903 33.032258 0c18.233806 0 33.032258-14.798452 33.032258-33.032258s-14.798452-33.032258-33.032258-33.032258l-33.032258 0 0-132.129032 33.032258 0c18.233806 0 33.032258-14.798452 33.032258-33.032258s-14.798452-33.032258-33.032258-33.032258l-33.032258 0 0-115.612903 33.032258 0c18.233806 0 33.032258-14.798452 33.032258-33.032258s-14.798452-33.032258-33.032258-33.032258l-33.032258 0 0-132.129032 33.032258 0c18.233806 0 33.032258-14.798452 33.032258-33.032258s-14.798452-33.032258-33.032258-33.032258l-33.032258 0 0-115.612903 726.709677 0L883.612903 949.677419z" p-id="9512"></path></svg>